<svg width="884.44" height="201.85" xmlns="http://www.w3.org/2000/svg" data-name="Calque 1">
 <title>Sneakify-Logotype-Full-2022</title>

 <g>
  <title>Layer 1</title>
  <path fill="#2e6cf5" id="svg_1" d="m175.08,65.05001l6.92,-4.71c16.79,28.14 18.1,77.23 -15.8,112.26s-88.64,38.52 -126.49,10.75c-38.86,-28.52 -51.1,-81.43 -28.21,-123.75c24.17,-44.7 73.6,-58.73 111.37,-47.3l-3,8.2c-26.32,-6.35 -51,-2.56 -73.43,13a85.36,85.36 0 0 0 -32.79,43.89a87.58,87.58 0 0 0 31.48,98.64c30.53,22.33 72.17,22.24 103,0.36c27.74,-19.73 49.53,-64.21 26.95,-111.34z"/>
  <path fill="#2e6cf5" id="svg_2" d="m187.79,30.63001a30.56,30.56 0 1 1 -30.44,-30.63a30.73,30.73 0 0 1 30.44,30.63zm-35,0.5l0,0c0,3.2 0,6.4 0,9.6c0.07,2.87 1.55,4.81 4.46,4.84c3.1,0 4.68,-1.93 4.7,-5c0,-6.4 0,-12.8 0,-19.2c0,-3 -1.34,-5 -4.48,-5.22c-2.8,-0.2 -4.61,1.89 -4.7,5.37c-0.08,3.21 -0.02,6.41 -0.02,9.61l0.04,0z"/>
  <path fill="#2e6cf5" id="svg_3" d="m55.35,125.66001l20.55,-5.48c1.67,18 9.74,22.23 23.59,22.23c13.55,0 19.34,-4.26 19.34,-13.86c0,-9.13 -4.11,-11 -15.83,-13.24l-18.12,-3.5c-13.4,-2.59 -27,-10 -27,-30.6c0,-18.88 15.68,-31.36 38.67,-31.36c23.45,0 39.43,10.65 41.41,33.19l-19.18,5.32c-0.92,-17.81 -9.59,-21.16 -22.38,-21.16c-11.88,0 -17.66,4 -17.66,13.1c0,9.43 5,11.57 16.14,13.54l16.74,3.2c17.21,3.2 27.86,11.72 27.86,28.77c0,20.25 -15.68,33.65 -40.49,33.65c-23.38,0 -40.43,-9.92 -43.64,-33.8z"/>
  <path id="svg_4" d="m266.02,126.74001l17.12,-4.87c1.72,20.88 11.14,25.59 27,25.59c15.7,0 22.77,-4.86 22.77,-16.95c0,-11.93 -4.71,-13.35 -18.84,-16.33l-17.12,-3.64c-13.19,-2.67 -27.94,-8.48 -27.94,-30.14c0,-19 15.38,-31.72 38.3,-31.72c25.28,0 40.35,12.41 41.29,35.17l-16,4.71c0,-21.19 -10.05,-25.59 -25.75,-25.59c-13.81,0 -20.56,4.71 -20.56,16.17c0,11.62 5.49,14 16.95,16.33l18.21,3.61c16.33,3.3 28.73,9.73 28.73,29c0,20.1 -15.7,33.6 -40.5,33.6c-23.09,0.07 -40.33,-9.82 -43.66,-34.94z"/>
  <path id="svg_5" d="m435.74,113.87001l0,46.31l-16,0l0,-45.21c0,-11.31 -6.28,-17.12 -16.49,-17.12c-12.72,0 -20.88,9.42 -20.88,26.85l0,35.48l-16.02,0l0,-75.36l16,0l0,18.21c3.61,-12.09 11.62,-19.78 26.38,-19.78c17.75,0 27.01,10.68 27.01,30.62z"/>
  <path id="svg_6" d="m523.97,127.54001l-56.2,0c1.1,15.23 7.53,21.2 21.66,21.2c10.52,0 15.07,-2.67 18.53,-11.78l14.44,5.34c-5.34,13.19 -17.74,19.47 -33.12,19.47c-22.93,0 -37.84,-15.39 -37.84,-39.09c0,-23.55 15.38,-39.41 37.05,-39.41c21,0 35.64,14.6 35.64,37.68c0,2.34 0,3.59 -0.16,6.59zm-56,-11.77l40.2,0c-0.63,-14.44 -6.44,-19.94 -19.47,-19.94c-12.61,-0.02 -19.35,6.26 -20.78,19.92l0.05,0.02z"/>
  <path id="svg_7" d="m612.83,84.82001l0,75.36l-16,0l0,-15.54c-5.18,10.83 -14.6,17.11 -27.16,17.11c-21.67,0 -35.17,-15.7 -35.17,-39.25s13.34,-39.25 34.54,-39.25c12.87,0 22.61,6.28 27.79,17.43l0,-15.86l16,0zm-15.23,37.72c0,-16.8 -7.53,-24.65 -23.55,-24.65s-23.39,7.85 -23.39,24.65s7.38,24.65 23.39,24.65s23.55,-7.89 23.55,-24.65z"/>
  <path id="svg_8" d="m665.58,126.11001l-14.44,15.43l0,18.68l-16,0l0,-109.94l16,0l0,77.09l11.3,-16.49l22,-26.06l20.26,0l-29.07,30.62l30.93,44.74l-19.31,0l-21.67,-34.07z"/>
  <path id="svg_9" d="m716.76,58.45001c-0.15,-6.75 3.93,-10.37 11,-10.37s10.84,3.62 11,10.37s-3.76,10.83 -11,10.83c-6.91,0 -10.84,-3.93 -11,-10.83zm2.83,26.37l16,0l0,75.36l-16,0l0,-75.36z"/>
  <path id="svg_10" d="m803.58,99.11001l-23.23,0l0,61.07l-16,0l0,-61.07l-16,0l0,-14.29l16,0l0,-15.7c0,-12.56 8.32,-20.88 20.88,-20.88l17.43,0l0,14.3l-22.31,0l0,22.29l23.23,0l0,14.28z"/>
  <path id="svg_11" d="m884.43,84.82001l-33.91,86c-4.55,11.46 -10.52,16 -24.33,16l-16.17,0l0,-14.28l27.33,0l0.94,-3.14l-0.32,0.32l-32.82,-84.9l17.74,0l16.33,47.57l5.34,17.59l5.65,-17.75l16.48,-47.41l17.74,0z"/>
 </g>
</svg>